<?xml version="1.0" encoding="iso-8859-1"?>
<!-- Uploaded to: SVG Repo, www.svgrepo.com, Generator: SVG Repo Mixer Tools -->
<svg fill="#000000" height="800px" width="800px" version="1.1" id="Layer_1" xmlns="http://www.w3.org/2000/svg" xmlns:xlink="http://www.w3.org/1999/xlink" 
	 viewBox="0 0 512 512" xml:space="preserve">
<g>
	<g>
		<path d="M348.907,330.667c78.187,0,120.427-59.093,120.427-114.667c0-49.28-29.227-101.867-110.08-105.92
			c-1.28-18.347-7.147-56.32-32.747-82.56C308.693,9.28,285.013,0,256,0c-29.013,0-52.48,9.173-70.187,27.413
			c-25.92,26.56-31.787,65.067-32.96,83.627c-75.627,4.373-110.187,56.32-110.187,104.853c0,55.573,42.24,114.773,120.427,114.773
			h50.24V352h-64c-5.867,0-10.667,4.8-10.667,10.667c0,1.28,0.213,2.453,0.64,3.627l50.667,138.667
			c1.493,4.16,5.547,7.04,10.027,7.04h101.333c4.48,0,8.427-2.773,10.027-7.04l50.667-138.667c2.027-5.547-0.853-11.627-6.4-13.653
			c-1.173-0.427-2.453-0.64-3.627-0.64h-64v-21.333H348.907z M336.747,373.333l-42.88,117.333h-86.4l-42.88-117.333H336.747z
			 M234.667,352v-21.333h32V352H234.667z M163.093,309.227C90.453,309.333,64,253.44,64,215.787
			c0-41.707,30.613-83.733,99.093-83.733c5.867,0,10.667-4.8,10.667-10.667c0-0.107,0-0.213,0-0.32
			c0-0.533-0.853-50.027,27.307-78.933c13.547-13.867,32-20.907,54.827-20.907c22.827,0,41.6,7.04,55.147,20.907
			c27.947,28.587,27.093,77.44,27.093,77.973c-0.107,5.867,4.48,10.773,10.347,10.88c0.107,0,0.213,0,0.32,0
			c62.08,0,99.093,31.68,99.093,84.907c0,37.547-26.453,93.333-99.093,93.333H163.093z"/>
	</g>
</g>
</svg>